<svg width="617" height="617" xmlns="http://www.w3.org/2000/svg" version="1.1"><g transform="translate(308.5,308.5)"><g display="none"><path d="M0,178.11255804499953A178.11255804499953,178.11255804499953 0 1,1 0,-178.11255804499953A178.11255804499953,178.11255804499953 0 1,1 0,178.11255804499953Z" style="stroke: rgb(255, 255, 255); fill: rgb(191, 105, 105); fill-rule: evenodd;"></path><text transform="rotate(90)" x="0" dx="6" dy=".35em" style="font-size: 11px; font-family: Arial, Helvetica;"></text><title>undefined: none</title></g><g><path d="M1.542376483306632e-14,-251.8891952162035A251.8891952162035,251.8891952162035 0 0,1 178.11255804499956,-178.11255804499953L125.94459760810173,-125.94459760810172A178.11255804499953,178.11255804499953 0 0,0 1.0906248704887791e-14,-178.11255804499953Z" style="stroke: rgb(255, 255, 255); fill: rgb(191, 105, 105); fill-rule: evenodd;"></path><text transform="rotate(-67.5)" x="178.11255804499953" dx="6" dy=".35em" style="font-size: 11px; font-family: Arial, Helvetica;">Cabernet Sauvignon</text><title>Cabernet Sauvignon: none</title></g><g><path d="M1.8890176876847922e-14,-308.5A308.5,308.5 0 0,1 48.26003246491124,-304.7018530736L39.40415150306109,-248.78802123693674A251.8891952162035,251.8891952162035 0 0,0 1.542376483306632e-14,-251.8891952162035Z" style="stroke: rgb(255, 255, 255); fill: rgb(191, 105, 105); fill-rule: evenodd;"></path><text transform="rotate(-85.5)" x="251.8891952162035" dx="6" dy=".35em" style="font-size: 11px; font-family: Arial, Helvetica;">cherry </text><title>cherry : 1</title></g><g><path d="M48.26003246491124,-304.7018530736A308.5,308.5 0 0,1 95.33174276467129,-293.4009352770549L77.8380420212356,-239.56086049471233A251.8891952162035,251.8891952162035 0 0,0 39.40415150306109,-248.78802123693674Z" style="stroke: rgb(255, 255, 255); fill: rgb(191, 105, 105); fill-rule: evenodd;"></path><text transform="rotate(-76.5)" x="251.8891952162035" dx="6" dy=".35em" style="font-size: 11px; font-family: Arial, Helvetica;">oak </text><title>oak : 1</title></g><g><path d="M95.33174276467129,-293.4009352770549A308.5,308.5 0 0,1 140.05606916965021,-274.87551271211146L114.3553016151965,-224.43491631019472A251.8891952162035,251.8891952162035 0 0,0 77.8380420212356,-239.56086049471233Z" style="stroke: rgb(255, 255, 255); fill: rgb(191, 105, 105); fill-rule: evenodd;"></path><text transform="rotate(-67.5)" x="251.8891952162035" dx="6" dy=".35em" style="font-size: 11px; font-family: Arial, Helvetica;">currant </text><title>currant : 1</title></g><g><path d="M140.05606916965021,-274.87551271211146A308.5,308.5 0 0,1 181.33175033222795,-249.58174276467128L148.0567541599042,-203.78263962933733A251.8891952162035,251.8891952162035 0 0,0 114.3553016151965,-224.43491631019472Z" style="stroke: rgb(255, 255, 255); fill: rgb(191, 105, 105); fill-rule: evenodd;"></path><text transform="rotate(-58.5)" x="251.8891952162035" dx="6" dy=".35em" style="font-size: 11px; font-family: Arial, Helvetica;">cassis</text><title>cassis: 1</title></g><g><path d="M181.33175033222795,-249.58174276467128A308.5,308.5 0 0,1 218.14244199604994,-218.14244199604988L178.11255804499956,-178.11255804499953A251.8891952162035,251.8891952162035 0 0,0 148.0567541599042,-203.78263962933733Z" style="stroke: rgb(255, 255, 255); fill: rgb(191, 105, 105); fill-rule: evenodd;"></path><text transform="rotate(-49.50000000000001)" x="251.8891952162035" dx="6" dy=".35em" style="font-size: 11px; font-family: Arial, Helvetica;">blackberry</text><title>blackberry: 1</title></g><g><path d="M178.11255804499956,-178.11255804499953A251.8891952162035,251.8891952162035 0 0,1 251.8891952162035,0L178.11255804499953,0A178.11255804499953,178.11255804499953 0 0,0 125.94459760810173,-125.94459760810172Z" style="stroke: rgb(255, 255, 255); fill: rgb(191, 169, 105); fill-rule: evenodd;"></path><text transform="rotate(-22.5)" x="178.11255804499953" dx="6" dy=".35em" style="font-size: 11px; font-family: Arial, Helvetica;">Chardonnary</text><title>Chardonnary: none</title></g><g><path d="M218.14244199604994,-218.14244199604988A308.5,308.5 0 0,1 249.58174276467128,-181.33175033222795L203.78263962933733,-148.0567541599042A251.8891952162035,251.8891952162035 0 0,0 178.11255804499956,-178.11255804499953Z" style="stroke: rgb(255, 255, 255); fill: rgb(191, 169, 105); fill-rule: evenodd;"></path><text transform="rotate(-40.5)" x="251.8891952162035" dx="6" dy=".35em" style="font-size: 11px; font-family: Arial, Helvetica;">citrus </text><title>citrus : 1</title></g><g><path d="M249.58174276467128,-181.33175033222795A308.5,308.5 0 0,1 274.8755127121115,-140.0560691696502L224.43491631019475,-114.35530161519647A251.8891952162035,251.8891952162035 0 0,0 203.78263962933733,-148.0567541599042Z" style="stroke: rgb(255, 255, 255); fill: rgb(191, 169, 105); fill-rule: evenodd;"></path><text transform="rotate(-31.499999999999996)" x="251.8891952162035" dx="6" dy=".35em" style="font-size: 11px; font-family: Arial, Helvetica;">oak </text><title>oak : 1</title></g><g><path d="M274.8755127121115,-140.0560691696502A308.5,308.5 0 0,1 293.4009352770549,-95.33174276467128L239.56086049471233,-77.83804202123558A251.8891952162035,251.8891952162035 0 0,0 224.43491631019475,-114.35530161519647Z" style="stroke: rgb(255, 255, 255); fill: rgb(191, 169, 105); fill-rule: evenodd;"></path><text transform="rotate(-22.5)" x="251.8891952162035" dx="6" dy=".35em" style="font-size: 11px; font-family: Arial, Helvetica;">apple </text><title>apple : 1</title></g><g><path d="M293.4009352770549,-95.33174276467128A308.5,308.5 0 0,1 304.7018530736,-48.26003246491122L248.78802123693674,-39.40415150306107A251.8891952162035,251.8891952162035 0 0,0 239.56086049471233,-77.83804202123558Z" style="stroke: rgb(255, 255, 255); fill: rgb(191, 169, 105); fill-rule: evenodd;"></path><text transform="rotate(-13.5)" x="251.8891952162035" dx="6" dy=".35em" style="font-size: 11px; font-family: Arial, Helvetica;">lemon </text><title>lemon : 1</title></g><g><path d="M304.7018530736,-48.26003246491122A308.5,308.5 0 0,1 308.5,0L251.8891952162035,0A251.8891952162035,251.8891952162035 0 0,0 248.78802123693674,-39.40415150306107Z" style="stroke: rgb(255, 255, 255); fill: rgb(191, 169, 105); fill-rule: evenodd;"></path><text transform="rotate(-4.5)" x="251.8891952162035" dx="6" dy=".35em" style="font-size: 11px; font-family: Arial, Helvetica;">mineral </text><title>mineral : 1</title></g><g><path d="M251.8891952162035,0A251.8891952162035,251.8891952162035 0 0,1 178.11255804499956,178.11255804499953L125.94459760810173,125.94459760810172A178.11255804499953,178.11255804499953 0 0,0 178.11255804499953,0Z" style="stroke: rgb(255, 255, 255); fill: rgb(148, 191, 105); fill-rule: evenodd;"></path><text transform="rotate(22.5)" x="178.11255804499953" dx="6" dy=".35em" style="font-size: 11px; font-family: Arial, Helvetica;">Malbec</text><title>Malbec: none</title></g><g><path d="M308.5,0A308.5,308.5 0 0,1 304.7018530736,48.26003246491122L248.78802123693674,39.40415150306107A251.8891952162035,251.8891952162035 0 0,0 251.8891952162035,0Z" style="stroke: rgb(255, 255, 255); fill: rgb(148, 191, 105); fill-rule: evenodd;"></path><text transform="rotate(4.5)" x="251.8891952162035" dx="6" dy=".35em" style="font-size: 11px; font-family: Arial, Helvetica;">blackberry </text><title>blackberry : 1</title></g><g><path d="M304.7018530736,48.26003246491122A308.5,308.5 0 0,1 293.4009352770549,95.33174276467128L239.56086049471233,77.83804202123558A251.8891952162035,251.8891952162035 0 0,0 248.78802123693674,39.40415150306107Z" style="stroke: rgb(255, 255, 255); fill: rgb(148, 191, 105); fill-rule: evenodd;"></path><text transform="rotate(13.5)" x="251.8891952162035" dx="6" dy=".35em" style="font-size: 11px; font-family: Arial, Helvetica;">cherry </text><title>cherry : 1</title></g><g><path d="M293.4009352770549,95.33174276467128A308.5,308.5 0 0,1 274.8755127121115,140.0560691696502L224.43491631019475,114.35530161519647A251.8891952162035,251.8891952162035 0 0,0 239.56086049471233,77.83804202123558Z" style="stroke: rgb(255, 255, 255); fill: rgb(148, 191, 105); fill-rule: evenodd;"></path><text transform="rotate(22.5)" x="251.8891952162035" dx="6" dy=".35em" style="font-size: 11px; font-family: Arial, Helvetica;">oak </text><title>oak : 1</title></g><g><path d="M274.8755127121115,140.0560691696502A308.5,308.5 0 0,1 249.58174276467128,181.33175033222795L203.78263962933733,148.0567541599042A251.8891952162035,251.8891952162035 0 0,0 224.43491631019475,114.35530161519647Z" style="stroke: rgb(255, 255, 255); fill: rgb(148, 191, 105); fill-rule: evenodd;"></path><text transform="rotate(31.499999999999996)" x="251.8891952162035" dx="6" dy=".35em" style="font-size: 11px; font-family: Arial, Helvetica;">plum </text><title>plum : 1</title></g><g><path d="M249.58174276467128,181.33175033222795A308.5,308.5 0 0,1 218.14244199604994,218.14244199604988L178.11255804499956,178.11255804499953A251.8891952162035,251.8891952162035 0 0,0 203.78263962933733,148.0567541599042Z" style="stroke: rgb(255, 255, 255); fill: rgb(148, 191, 105); fill-rule: evenodd;"></path><text transform="rotate(40.5)" x="251.8891952162035" dx="6" dy=".35em" style="font-size: 11px; font-family: Arial, Helvetica;">chocolate </text><title>chocolate : 1</title></g><g><path d="M178.11255804499956,178.11255804499953A251.8891952162035,251.8891952162035 0 0,1 1.542376483306632e-14,251.8891952162035L1.0906248704887791e-14,178.11255804499953A178.11255804499953,178.11255804499953 0 0,0 125.94459760810173,125.94459760810172Z" style="stroke: rgb(255, 255, 255); fill: rgb(105, 191, 126); fill-rule: evenodd;"></path><text transform="rotate(67.5)" x="178.11255804499953" dx="6" dy=".35em" style="font-size: 11px; font-family: Arial, Helvetica;">Merlot</text><title>Merlot: none</title></g><g><path d="M218.14244199604994,218.14244199604988A308.5,308.5 0 0,1 181.33175033222795,249.58174276467128L148.0567541599042,203.78263962933733A251.8891952162035,251.8891952162035 0 0,0 178.11255804499956,178.11255804499953Z" style="stroke: rgb(255, 255, 255); fill: rgb(105, 191, 126); fill-rule: evenodd;"></path><text transform="rotate(49.50000000000001)" x="251.8891952162035" dx="6" dy=".35em" style="font-size: 11px; font-family: Arial, Helvetica;">cherry </text><title>cherry : 1</title></g><g><path d="M181.33175033222795,249.58174276467128A308.5,308.5 0 0,1 140.05606916965021,274.87551271211146L114.3553016151965,224.43491631019472A251.8891952162035,251.8891952162035 0 0,0 148.0567541599042,203.78263962933733Z" style="stroke: rgb(255, 255, 255); fill: rgb(105, 191, 126); fill-rule: evenodd;"></path><text transform="rotate(58.5)" x="251.8891952162035" dx="6" dy=".35em" style="font-size: 11px; font-family: Arial, Helvetica;">oak </text><title>oak : 1</title></g><g><path d="M140.05606916965021,274.87551271211146A308.5,308.5 0 0,1 95.33174276467129,293.4009352770549L77.8380420212356,239.56086049471233A251.8891952162035,251.8891952162035 0 0,0 114.3553016151965,224.43491631019472Z" style="stroke: rgb(255, 255, 255); fill: rgb(105, 191, 126); fill-rule: evenodd;"></path><text transform="rotate(67.5)" x="251.8891952162035" dx="6" dy=".35em" style="font-size: 11px; font-family: Arial, Helvetica;">chocolate </text><title>chocolate : 1</title></g><g><path d="M95.33174276467129,293.4009352770549A308.5,308.5 0 0,1 48.26003246491124,304.7018530736L39.40415150306109,248.78802123693674A251.8891952162035,251.8891952162035 0 0,0 77.8380420212356,239.56086049471233Z" style="stroke: rgb(255, 255, 255); fill: rgb(105, 191, 126); fill-rule: evenodd;"></path><text transform="rotate(76.5)" x="251.8891952162035" dx="6" dy=".35em" style="font-size: 11px; font-family: Arial, Helvetica;">plum </text><title>plum : 1</title></g><g><path d="M48.26003246491124,304.7018530736A308.5,308.5 0 0,1 1.8890176876847922e-14,308.5L1.542376483306632e-14,251.8891952162035A251.8891952162035,251.8891952162035 0 0,0 39.40415150306109,248.78802123693674Z" style="stroke: rgb(255, 255, 255); fill: rgb(105, 191, 126); fill-rule: evenodd;"></path><text transform="rotate(85.5)" x="251.8891952162035" dx="6" dy=".35em" style="font-size: 11px; font-family: Arial, Helvetica;">vanilla</text><title>vanilla: 1</title></g><g><path d="M1.542376483306632e-14,251.8891952162035A251.8891952162035,251.8891952162035 0 0,1 -178.11255804499953,178.11255804499956L-125.94459760810172,125.94459760810173A178.11255804499953,178.11255804499953 0 0,0 1.0906248704887791e-14,178.11255804499953Z" style="stroke: rgb(255, 255, 255); fill: rgb(105, 191, 191); fill-rule: evenodd;"></path><text transform="rotate(112.5)" x="178.11255804499953" dx="6" dy=".35em" style="font-size: 11px; font-family: Arial, Helvetica;">Pinot Noir</text><title>Pinot Noir: none</title></g><g><path d="M1.8890176876847922e-14,308.5A308.5,308.5 0 0,1 -48.260032464911205,304.7018530736L-39.40415150306106,248.78802123693674A251.8891952162035,251.8891952162035 0 0,0 1.542376483306632e-14,251.8891952162035Z" style="stroke: rgb(255, 255, 255); fill: rgb(105, 191, 191); fill-rule: evenodd;"></path><text transform="rotate(94.5)" x="251.8891952162035" dx="6" dy=".35em" style="font-size: 11px; font-family: Arial, Helvetica;">cherry </text><title>cherry : 1</title></g><g><path d="M-48.260032464911205,304.7018530736A308.5,308.5 0 0,1 -95.33174276467125,293.4009352770549L-77.83804202123557,239.56086049471236A251.8891952162035,251.8891952162035 0 0,0 -39.40415150306106,248.78802123693674Z" style="stroke: rgb(255, 255, 255); fill: rgb(105, 191, 191); fill-rule: evenodd;"></path><text transform="rotate(103.49999999999999)" x="251.8891952162035" dx="6" dy=".35em" style="font-size: 11px; font-family: Arial, Helvetica;">spice</text><title>spice: 1</title></g><g><path d="M-95.33174276467125,293.4009352770549A308.5,308.5 0 0,1 -140.0560691696502,274.8755127121115L-114.35530161519647,224.43491631019475A251.8891952162035,251.8891952162035 0 0,0 -77.83804202123557,239.56086049471236Z" style="stroke: rgb(255, 255, 255); fill: rgb(105, 191, 191); fill-rule: evenodd;"></path><text transform="rotate(112.5)" x="251.8891952162035" dx="6" dy=".35em" style="font-size: 11px; font-family: Arial, Helvetica;">strawberry </text><title>strawberry : 1</title></g><g><path d="M-140.0560691696502,274.8755127121115A308.5,308.5 0 0,1 -181.33175033222793,249.58174276467128L-148.05675415990416,203.78263962933733A251.8891952162035,251.8891952162035 0 0,0 -114.35530161519647,224.43491631019475Z" style="stroke: rgb(255, 255, 255); fill: rgb(105, 191, 191); fill-rule: evenodd;"></path><text transform="rotate(121.50000000000001)" x="251.8891952162035" dx="6" dy=".35em" style="font-size: 11px; font-family: Arial, Helvetica;">earth </text><title>earth : 1</title></g><g><path d="M-181.33175033222793,249.58174276467128A308.5,308.5 0 0,1 -218.14244199604988,218.14244199604994L-178.11255804499953,178.11255804499956A251.8891952162035,251.8891952162035 0 0,0 -148.05675415990416,203.78263962933733Z" style="stroke: rgb(255, 255, 255); fill: rgb(105, 191, 191); fill-rule: evenodd;"></path><text transform="rotate(130.5)" x="251.8891952162035" dx="6" dy=".35em" style="font-size: 11px; font-family: Arial, Helvetica;">raspberry </text><title>raspberry : 1</title></g><g><path d="M-178.11255804499953,178.11255804499956A251.8891952162035,251.8891952162035 0 0,1 -251.8891952162035,3.084752966613264e-14L-178.11255804499953,2.1812497409775582e-14A178.11255804499953,178.11255804499953 0 0,0 -125.94459760810172,125.94459760810173Z" style="stroke: rgb(255, 255, 255); fill: rgb(105, 126, 191); fill-rule: evenodd;"></path><text transform="rotate(157.49999999999997)" x="178.11255804499953" dx="6" dy=".35em" style="font-size: 11px; font-family: Arial, Helvetica;">Riesling</text><title>Riesling: none</title></g><g><path d="M-218.14244199604988,218.14244199604994A308.5,308.5 0 0,1 -249.58174276467125,181.33175033222798L-203.78263962933733,148.05675415990422A251.8891952162035,251.8891952162035 0 0,0 -178.11255804499953,178.11255804499956Z" style="stroke: rgb(255, 255, 255); fill: rgb(105, 126, 191); fill-rule: evenodd;"></path><text transform="rotate(139.49999999999997)" x="251.8891952162035" dx="6" dy=".35em" style="font-size: 11px; font-family: Arial, Helvetica;">apple </text><title>apple : 1</title></g><g><path d="M-249.58174276467125,181.33175033222798A308.5,308.5 0 0,1 -274.87551271211146,140.05606916965021L-224.43491631019472,114.3553016151965A251.8891952162035,251.8891952162035 0 0,0 -203.78263962933733,148.05675415990422Z" style="stroke: rgb(255, 255, 255); fill: rgb(105, 126, 191); fill-rule: evenodd;"></path><text transform="rotate(148.50000000000003)" x="251.8891952162035" dx="6" dy=".35em" style="font-size: 11px; font-family: Arial, Helvetica;">citrus </text><title>citrus : 1</title></g><g><path d="M-274.87551271211146,140.05606916965021A308.5,308.5 0 0,1 -293.4009352770549,95.3317427646713L-239.56086049471233,77.83804202123561A251.8891952162035,251.8891952162035 0 0,0 -224.43491631019472,114.3553016151965Z" style="stroke: rgb(255, 255, 255); fill: rgb(105, 126, 191); fill-rule: evenodd;"></path><text transform="rotate(157.49999999999997)" x="251.8891952162035" dx="6" dy=".35em" style="font-size: 11px; font-family: Arial, Helvetica;">petrol </text><title>petrol : 1</title></g><g><path d="M-293.4009352770549,95.3317427646713A308.5,308.5 0 0,1 -304.7018530736,48.260032464911255L-248.78802123693671,39.4041515030611A251.8891952162035,251.8891952162035 0 0,0 -239.56086049471233,77.83804202123561Z" style="stroke: rgb(255, 255, 255); fill: rgb(105, 126, 191); fill-rule: evenodd;"></path><text transform="rotate(166.50000000000003)" x="251.8891952162035" dx="6" dy=".35em" style="font-size: 11px; font-family: Arial, Helvetica;">mineral </text><title>mineral : 1</title></g><g><path d="M-304.7018530736,48.260032464911255A308.5,308.5 0 0,1 -308.5,3.7780353753695844e-14L-251.8891952162035,3.084752966613264e-14A251.8891952162035,251.8891952162035 0 0,0 -248.78802123693671,39.4041515030611Z" style="stroke: rgb(255, 255, 255); fill: rgb(105, 126, 191); fill-rule: evenodd;"></path><text transform="rotate(175.49999999999997)" x="251.8891952162035" dx="6" dy=".35em" style="font-size: 11px; font-family: Arial, Helvetica;">peach </text><title>peach : 1</title></g><g><path d="M-251.8891952162035,3.084752966613264e-14A251.8891952162035,251.8891952162035 0 0,1 -178.1125580449996,-178.11255804499953L-125.94459760810176,-125.94459760810172A178.11255804499953,178.11255804499953 0 0,0 -178.11255804499953,2.1812497409775582e-14Z" style="stroke: rgb(255, 255, 255); fill: rgb(148, 105, 191); fill-rule: evenodd;"></path><text transform="rotate(202.50000000000003)" x="178.11255804499953" dx="6" dy=".35em" style="font-size: 11px; font-family: Arial, Helvetica;">Sauvignon Blanc</text><title>Sauvignon Blanc: none</title></g><g><path d="M-308.5,3.7780353753695844e-14A308.5,308.5 0 0,1 -304.7018530736,-48.26003246491118L-248.78802123693674,-39.40415150306104A251.8891952162035,251.8891952162035 0 0,0 -251.8891952162035,3.084752966613264e-14Z" style="stroke: rgb(255, 255, 255); fill: rgb(148, 105, 191); fill-rule: evenodd;"></path><text transform="rotate(184.50000000000003)" x="251.8891952162035" dx="6" dy=".35em" style="font-size: 11px; font-family: Arial, Helvetica;">grapefruit  </text><title>grapefruit  : 1</title></g><g><path d="M-304.7018530736,-48.26003246491118A308.5,308.5 0 0,1 -293.4009352770549,-95.33174276467123L-239.56086049471236,-77.83804202123555A251.8891952162035,251.8891952162035 0 0,0 -248.78802123693674,-39.40415150306104Z" style="stroke: rgb(255, 255, 255); fill: rgb(148, 105, 191); fill-rule: evenodd;"></path><text transform="rotate(193.5)" x="251.8891952162035" dx="6" dy=".35em" style="font-size: 11px; font-family: Arial, Helvetica;">crisp</text><title>crisp: 1</title></g><g><path d="M-293.4009352770549,-95.33174276467123A308.5,308.5 0 0,1 -274.8755127121115,-140.05606916965016L-224.43491631019475,-114.35530161519645A251.8891952162035,251.8891952162035 0 0,0 -239.56086049471236,-77.83804202123555Z" style="stroke: rgb(255, 255, 255); fill: rgb(148, 105, 191); fill-rule: evenodd;"></path><text transform="rotate(202.50000000000003)" x="251.8891952162035" dx="6" dy=".35em" style="font-size: 11px; font-family: Arial, Helvetica;">lemon </text><title>lemon : 1</title></g><g><path d="M-274.8755127121115,-140.05606916965016A308.5,308.5 0 0,1 -249.58174276467128,-181.33175033222793L-203.78263962933733,-148.05675415990416A251.8891952162035,251.8891952162035 0 0,0 -224.43491631019475,-114.35530161519645Z" style="stroke: rgb(255, 255, 255); fill: rgb(148, 105, 191); fill-rule: evenodd;"></path><text transform="rotate(211.49999999999997)" x="251.8891952162035" dx="6" dy=".35em" style="font-size: 11px; font-family: Arial, Helvetica;">grass</text><title>grass: 1</title></g><g><path d="M-249.58174276467128,-181.33175033222793A308.5,308.5 0 0,1 -218.14244199604997,-218.14244199604988L-178.1125580449996,-178.11255804499953A251.8891952162035,251.8891952162035 0 0,0 -203.78263962933733,-148.05675415990416Z" style="stroke: rgb(255, 255, 255); fill: rgb(148, 105, 191); fill-rule: evenodd;"></path><text transform="rotate(220.50000000000003)" x="251.8891952162035" dx="6" dy=".35em" style="font-size: 11px; font-family: Arial, Helvetica;">mineral </text><title>mineral : 1</title></g><g><path d="M-178.1125580449996,-178.11255804499953A251.8891952162035,251.8891952162035 0 0,1 -4.627129449919896e-14,-251.8891952162035L-3.271874611466337e-14,-178.11255804499953A178.11255804499953,178.11255804499953 0 0,0 -125.94459760810176,-125.94459760810172Z" style="stroke: rgb(255, 255, 255); fill: rgb(191, 105, 169); fill-rule: evenodd;"></path><text transform="rotate(247.49999999999997)" x="178.11255804499953" dx="6" dy=".35em" style="font-size: 11px; font-family: Arial, Helvetica;">Zinfindel</text><title>Zinfindel: none</title></g><g><path d="M-218.14244199604997,-218.14244199604988A308.5,308.5 0 0,1 -181.33175033222798,-249.58174276467125L-148.05675415990422,-203.78263962933733A251.8891952162035,251.8891952162035 0 0,0 -178.1125580449996,-178.11255804499953Z" style="stroke: rgb(255, 255, 255); fill: rgb(191, 105, 169); fill-rule: evenodd;"></path><text transform="rotate(229.49999999999997)" x="251.8891952162035" dx="6" dy=".35em" style="font-size: 11px; font-family: Arial, Helvetica;">cherry </text><title>cherry : 1</title></g><g><path d="M-181.33175033222798,-249.58174276467125A308.5,308.5 0 0,1 -140.05606916965021,-274.87551271211146L-114.35530161519651,-224.43491631019472A251.8891952162035,251.8891952162035 0 0,0 -148.05675415990422,-203.78263962933733Z" style="stroke: rgb(255, 255, 255); fill: rgb(191, 105, 169); fill-rule: evenodd;"></path><text transform="rotate(238.50000000000003)" x="251.8891952162035" dx="6" dy=".35em" style="font-size: 11px; font-family: Arial, Helvetica;">pepper </text><title>pepper : 1</title></g><g><path d="M-140.05606916965021,-274.87551271211146A308.5,308.5 0 0,1 -95.33174276467132,-293.4009352770549L-77.83804202123562,-239.56086049471233A251.8891952162035,251.8891952162035 0 0,0 -114.35530161519651,-224.43491631019472Z" style="stroke: rgb(255, 255, 255); fill: rgb(191, 105, 169); fill-rule: evenodd;"></path><text transform="rotate(247.49999999999997)" x="251.8891952162035" dx="6" dy=".35em" style="font-size: 11px; font-family: Arial, Helvetica;">blackberry </text><title>blackberry : 1</title></g><g><path d="M-95.33174276467132,-293.4009352770549A308.5,308.5 0 0,1 -48.260032464911276,-304.7018530736L-39.404151503061115,-248.78802123693671A251.8891952162035,251.8891952162035 0 0,0 -77.83804202123562,-239.56086049471233Z" style="stroke: rgb(255, 255, 255); fill: rgb(191, 105, 169); fill-rule: evenodd;"></path><text transform="rotate(256.5)" x="251.8891952162035" dx="6" dy=".35em" style="font-size: 11px; font-family: Arial, Helvetica;">raspberry </text><title>raspberry : 1</title></g><g><path d="M-48.260032464911276,-304.7018530736A308.5,308.5 0 0,1 -5.6670530630543766e-14,-308.5L-4.627129449919896e-14,-251.8891952162035A251.8891952162035,251.8891952162035 0 0,0 -39.404151503061115,-248.78802123693671Z" style="stroke: rgb(255, 255, 255); fill: rgb(191, 105, 169); fill-rule: evenodd;"></path><text transform="rotate(265.5)" x="251.8891952162035" dx="6" dy=".35em" style="font-size: 11px; font-family: Arial, Helvetica;">jammy</text><title>jammy: 1</title></g></g></svg>